<svg xmlns="http://www.w3.org/2000/svg" xmlns:xlink="http://www.w3.org/1999/xlink" xmlns:lucid="lucid" width="1040" height="671"><g transform="translate(-180 -80)" lucid:page-tab-id="0_0"><path d="M0 0h1870.87v1322.83H0z" fill="#fff"/><path d="M200 106c0-3.3 2.7-6 6-6h188c3.3 0 6 2.7 6 6v88c0 3.3-2.7 6-6 6H206c-3.3 0-6-2.7-6-6z" stroke="#5e5e5e" stroke-width="3" fill="#fff"/><use xlink:href="#a" transform="matrix(1,0,0,1,205,105) translate(29.16666666666667 48.71527777777778)"/><path d="M600 106c0-3.3 2.7-6 6-6h188c3.3 0 6 2.7 6 6v88c0 3.3-2.7 6-6 6H606c-3.3 0-6-2.7-6-6z" stroke="#5e5e5e" stroke-width="3" fill="#fff"/><use xlink:href="#b" transform="matrix(1,0,0,1,605,105) translate(51.882716049382715 48.71527777777778)"/><path d="M1000 106c0-3.3 2.7-6 6-6h188c3.3 0 6 2.7 6 6v88c0 3.3-2.7 6-6 6h-188c-3.3 0-6-2.7-6-6z" stroke="#5e5e5e" stroke-width="3" fill="#fff"/><use xlink:href="#c" transform="matrix(1,0,0,1,1005,105) translate(29.814814814814824 48.71527777777778)"/><path d="M260 266c0-3.3 2.7-6 6-6h68c3.3 0 6 2.7 6 6v448c0 3.3-2.7 6-6 6h-68c-3.3 0-6-2.7-6-6z" stroke="#5e5e5e" stroke-width="3" fill="#fff"/><path d="M300 202.5v4.58m0 9.17v9.17m0 9.16v9.17m0 9.17v4.58" stroke="#5e5e5e" stroke-width="2" fill="none"/><path d="M301 202.53h-2v-1.03h2zM301 258.5h-2v-1.03h2z" fill="#5e5e5e"/><path d="M700 202.5v4.38m0 8.75v8.75m0 8.75v4.37" stroke="#5e5e5e" stroke-width="2" fill="none"/><path d="M701 202.53h-2v-1.03h2zM701 238.5h-2v-1.03h2z" fill="#5e5e5e"/><path d="M680 246c0-3.3 2.7-6 6-6h28c3.3 0 6 2.7 6 6v88c0 3.3-2.7 6-6 6h-28c-3.3 0-6-2.7-6-6zM1070 366c0-3.3 2.7-6 6-6h48c3.3 0 6 2.7 6 6v48c0 3.3-2.7 6-6 6h-48c-3.3 0-6-2.7-6-6z" stroke="#5e5e5e" stroke-width="3" fill="#fff"/><path d="M1100 202.5v3.88m0 7.75v7.75m0 7.75v7.75m0 7.75v7.75m0 7.75v7.75m0 7.75v7.75m0 7.75v7.75m0 7.75v7.75m0 7.75v7.75m0 7.75v7.75m0 7.75v3.87" stroke="#5e5e5e" stroke-width="2" fill="none"/><path d="M1101 202.53h-2v-1.03h2zM1101 358.5h-2v-1.03h2z" fill="#5e5e5e"/><path d="M1100 642.5v4.02m0 8.04v8.04m0 8.05v8.04m0 8.03v8.04m0 8.04v8.05m0 8.05v8.04m0 8.04V739" stroke="#5e5e5e" stroke-width="2" fill="none"/><path d="M1101 642.53h-2v-1.03h2z" fill="#5e5e5e"/><path d="M1100 738.97V740M1100 422.5v3.88m0 7.75v7.75m0 7.75v7.75m0 7.75v7.75m0 7.75v7.75m0 7.75v7.75m0 7.75v7.75m0 7.75v7.75m0 7.75v7.75m0 7.75v7.75m0 7.75v3.87" stroke="#5e5e5e" stroke-width="2" fill="none"/><path d="M1101 422.53h-2v-1.03h2zM1101 578.5h-2v-1.03h2zM677.87 336.58h-9.3v-2h9.3zm-18.63 0H640.6v-2h18.64zm-27.95 0h-18.64v-2h18.63zm-27.95 0H584.7v-2h18.65zm-27.95 0h-18.63v-2h18.63zm-27.95 0h-18.63v-2h18.63zm-87.32 0H440.1v-2h20.03zm-30.04 0h-20.04v-2h20.03zm-30.05 0h-20.02v-2h20.02zm-30.03 0H360v-2h10.02zm149.48 0h-7.08v-2h7.08z" fill="#5e5e5e"/><path d="M679.14 336.58h-1.3v-2h.76zM359 340.22l-14.26-4.64 14.26-4.63z" fill="#5e5e5e"/><path d="M360 341.6l-18.5-6.02 18.5-6zm-12.03-6.02l10.03 3.26v-6.52z" fill="#5e5e5e"/><use xlink:href="#d" transform="matrix(1,0,0,1,463.5812469135801,324.91648261334404) translate(0 14.222222222222223)"/><path d="M1070.17 420.5h-4.04v-2h4.04zm-12.1 0h-8.08v-2h8.06zm-16.15 0h-8.07v-2h8.07zm-16.14 0h-8.07v-2h8.08zm-16.14 0h-8.07v-2h8.07zm-16.14 0h-8.07v-2h8.07zm-16.14 0h-8.07v-2h8.06zm-16.14 0h-8.07v-2h8.07zm-16.14 0H937v-2h8.08zm-16.14 0h-8.07v-2h8.07zm-16.14 0h-8.07v-2h8.07zm-16.14 0h-8.07v-2h8.06zm-16.14 0h-8.07v-2h8.07zm-16.14 0h-8.07v-2h8.08zm-16.14 0h-8.07v-2h8.07zm-16.14 0h-8.07v-2h8.07zm-16.14 0h-8.07v-2h8.06zm-16.14 0h-8.07v-2h8.07zm-16.14 0h-8.07v-2h8.08zm-16.14 0h-8.07v-2h8.07zm-16.14 0h-8.07v-2h8.07zm-16.14 0h-8.07v-2h8.06zm-16.14 0h-8.07v-2h8.07zm-16.14 0h-8.07v-2H703zm-16.14 0h-8.07v-2h8.07zm-16.14 0h-8.07v-2h8.07zm-16.14 0h-8.07v-2h8.06zm-16.14 0h-8.07v-2h8.07zm-16.14 0h-8.07v-2h8.08zm-16.14 0h-8.07v-2h8.07zm-16.14 0h-8.07v-2H590zm-16.14 0h-8.07v-2h8.06zm-64.95 0h-7.67v-2h7.68zm-15.74 0h-8.07v-2h8.06zm-16.14 0h-8.07v-2h8.07zm-16.14 0h-8.07v-2h8.08zm-16.14 0h-8.07v-2h8.07zm-16.14 0h-8.07v-2h8.07zm-16.14 0h-8.07v-2h8.06zm-16.14 0h-8.07v-2h8.07zm-16.14 0h-8.07v-2h8.08zm-16.14 0H360v-2h4.04z" fill="#5e5e5e"/><path fill="#5e5e5e"/><path d="M359 424.13l-14.26-4.63 14.26-4.64z" fill="#5e5e5e"/><path d="M360 425.5l-18.5-6 18.5-6zm-12.03-6l10.03 3.26v-6.52z" fill="#5e5e5e"/><use xlink:href="#d" transform="matrix(1,0,0,1,508.9145802469135,408.83189633844654) translate(0 14.222222222222223)"/><path d="M438.2 265.42h-96.07v-2h96.07zm221.8 0H511.14v-2H660z" fill="#5e5e5e"/><path d="M342.15 265.42h-.75l-.54-2h1.3zM675.26 264.42L661 269.05v-9.27z" fill="#5e5e5e"/><path d="M678.5 264.42l-18.5 6v-12zm-16.5 3.26l10.03-3.26-10.03-3.26z" fill="#5e5e5e"/><use xlink:href="#e" transform="matrix(1,0,0,1,438.1975308641976,253.75018405332239) translate(0 14.222222222222223)"/><path d="M798.74 381H342.5v-2h456.24zm251.26 0H859.93v-2H1050z" fill="#5e5e5e"/><path d="M342.53 381h-1.03v-2h1.03zM1065.26 380l-14.26 4.64v-9.28z" fill="#5e5e5e"/><path d="M1068.5 380l-18.5 6v-12zm-16.5 3.26l10.03-3.26-10.03-3.26z" fill="#5e5e5e"/><use xlink:href="#f" transform="matrix(1,0,0,1,798.7407407407408,369.3333333333333) translate(0 14.222222222222223)"/><path d="M700 562.5v4m0 8.03v8.03m0 8.02v8.02m0 8.02v8.03m0 8.02v8.02m0 8.02v8.02m0 8.02v8.02m0 8.03v8.03m0 8.02v8.03m0 8.02v8.02m0 8.02v8.03m0 8.02v4M700 562.53v-1.03M700 738.97V740M700 342.5v3.96m0 7.92v7.93m0 7.93v7.92m0 7.92V394m0 7.92v7.92m0 7.92v7.93m0 7.9v7.93m0 7.93v7.92m0 7.92v7.92m0 7.93v7.92m0 7.92v7.9m0 7.94v7.92m0 7.92v7.92m0 7.93v7.92m0 7.92v3.96" stroke="#5e5e5e" stroke-width="2" fill="none"/><path d="M701 342.53h-2v-1.03h2z" fill="#5e5e5e"/><path d="M700 564.3v1.03M300 722.5v4.13m0 8.25V739" stroke="#5e5e5e" stroke-width="2" fill="none"/><path d="M301 722.53h-2v-1.03h2z" fill="#5e5e5e"/><path d="M300 738.97V740" stroke="#5e5e5e" stroke-width="2" fill="none"/><path d="M1070 586c0-3.3 2.7-6 6-6h48c3.3 0 6 2.7 6 6v48c0 3.3-2.7 6-6 6h-48c-3.3 0-6-2.7-6-6z" stroke="#5e5e5e" stroke-width="3" fill="#fff"/><path d="M848.32 599.67H342.5v-2h505.82zm201.68 0h-95.65v-2H1050z" fill="#5e5e5e"/><path d="M342.53 599.67h-1.03v-2h1.03zM1065.26 598.67L1051 603.3v-9.27z" fill="#5e5e5e"/><path d="M1068.5 598.67l-18.5 6v-12.02zm-16.5 3.26l10.03-3.26-10.03-3.26z" fill="#5e5e5e"/><use xlink:href="#g" transform="matrix(1,0,0,1,848.320987654321,587.9999999999999) translate(0 14.222222222222223)"/><path d="M1067.5 630.33h-3.94v-2h3.94zm-11.82 0h-7.88v-2h7.88zm-15.76 0h-7.88v-2h7.88zm-15.76 0h-7.88v-2h7.88zm-15.76 0h-7.88v-2h7.88zm-15.76 0h-7.88v-2h7.88zm-15.76 0h-7.9v-2h7.9zm-15.77 0h-7.87v-2h7.88zm-15.75 0h-7.88v-2h7.88zm-15.76 0h-7.9v-2h7.9zm-15.77 0h-7.88v-2h7.88zm-15.76 0h-7.88v-2h7.87zm-15.76 0h-7.87v-2h7.88zm-15.75 0h-7.88v-2h7.88zm-15.76 0h-7.9v-2h7.9zm-15.77 0h-7.88v-2h7.88zm-15.76 0h-7.88v-2h7.87zm-15.76 0h-7.88v-2h7.9zm-15.76 0h-7.88v-2h7.88zm-15.76 0h-7.88v-2h7.88zm-15.76 0h-7.88v-2h7.88zm-15.76 0h-7.88v-2h7.88zm-15.76 0h-7.88v-2h7.88zm-15.76 0h-7.86v-2h7.86zm-15.7 0h-7.84v-2h7.84zm-15.68 0h-7.84v-2h7.84zm-15.68 0h-7.85v-2h7.85zm-15.7 0h-7.83v-2h7.84zm-15.67 0h-7.83v-2h7.84zm-190.38 0h-5.63v-2h5.62zm-13.47 0h-7.84v-2h7.85zm-15.68 0h-7.84v-2h7.84zm-15.68 0h-7.85v-2h7.84zm-15.7 0h-7.84v-2h7.85zm-15.68 0H360v-2h3.92zm250.9 0h-4.28v-2h4.3z" fill="#5e5e5e"/><path d="M1068.5 630.33h-1.03v-2h1.03zM359 633.97l-14.26-4.64L359 624.7z" fill="#5e5e5e"/><path d="M360 635.35l-18.5-6.02 18.5-6zm-12.03-6.02L358 632.6v-6.53z" fill="#5e5e5e"/><use xlink:href="#h" transform="matrix(1,0,0,1,440.12445679012325,618.666666666667) translate(0 14.222222222222223)"/><use xlink:href="#i" transform="matrix(1,0,0,1,440.12445679012325,618.666666666667) translate(53.283950617283956 14.222222222222223)"/><defs><path fill="#333" d="M52-115c0 90 69 126 140 93v-67l-30-5v-9h87v9l-23 5v77c-27 8-56 16-90 16C59 2 15-37 15-115c-1-82 41-123 122-123 31 0 59 4 83 10v51h-12l-5-29c-15-12-38-18-65-18-66-1-86 42-86 109" id="j"/><path fill="#333" d="M57-145c16-10 35-24 60-25v45c-19 1-8-30-40-17l-20 6v124l29 4v8H7v-8l21-4v-141c-8-3-24 2-21-12h48" id="k"/><path fill="#333" d="M47-200c-23 0-25-39 0-38 13 0 18 7 20 19-1 11-8 19-20 19zM65-12l28 4v8H8v-8l28-4v-141l-24-4v-8h53v153" id="l"/><path fill="#333" d="M13-81c0-71 46-101 114-85l-1-72-28-4v-8h57v238c8 3 24-2 21 12h-47l-2-12C80 23 13-1 13-81zm77-74c-37 1-44 33-45 74 0 38 9 66 45 66 14 0 27-3 36-7v-130c-10-1-24-3-36-3" id="m"/><path fill="#333" d="M178-68c0 79-95 82-154 59v-54h12c1 35 22 52 60 52 50 0 69-58 33-82-39-24-105-21-105-85 0-67 86-66 142-53v49h-12l-6-29c-31-27-121-7-89 42 28 43 119 24 119 101" id="n"/><path fill="#333" d="M84-170c49 0 66 33 63 87H46c-8 60 38 80 95 63v10C128-2 108 4 88 4 34 4 14-29 14-84c-1-54 22-86 70-86zm33 73c12-57-57-82-69-24-1 7-2 15-2 24h71" id="o"/><path fill="#333" d="M32-163c41-10 102-14 102 39v112c8 3 24-2 21 12h-45l-4-17C83 13 3 13 13-46c-2-50 45-50 92-51 4-36-5-70-42-56-6 2-12 4-16 6-4 7 0 23-15 20v-36zM42-47c0 41 41 33 63 22v-59c-34 1-63-1-63 37" id="p"/><path fill="#333" d="M45-84c0 64 52 80 104 63 1 25-30 25-55 25-56 0-80-32-80-88 0-76 62-98 131-80v46h-10c-5-15-4-31-23-35-47-10-67 21-67 69" id="q"/><path fill="#333" d="M126-119c3-38-42-31-69-25v132l23 4v8H7v-8l21-4v-226l-24-4v-8h53l-1 98c31-22 99-31 99 31v109c7 3 23-1 20 12h-71v-8l22-4v-107" id="r"/><path fill="#333" d="M52-115c0 93 80 130 150 87l7-35h11l-1 55c-23 7-52 12-83 12C60 4 19-37 15-115c-5-113 97-141 201-114l1 51h-12l-5-30c-15-9-39-16-62-16-66 0-86 41-86 109" id="s"/><path fill="#333" d="M256-236v10l-26 4L135 5h-9L31-222l-27-4v-10h95v10l-31 4 71 174 71-174-31-4v-10h77" id="t"/><g id="a"><use transform="matrix(0.06172839506172839,0,0,0.06172839506172839,0,0)" xlink:href="#j"/><use transform="matrix(0.06172839506172839,0,0,0.06172839506172839,15.987654320987653,0)" xlink:href="#k"/><use transform="matrix(0.06172839506172839,0,0,0.06172839506172839,23.333333333333332,0)" xlink:href="#l"/><use transform="matrix(0.06172839506172839,0,0,0.06172839506172839,29.50617283950617,0)" xlink:href="#m"/><use transform="matrix(0.06172839506172839,0,0,0.06172839506172839,40.61728395061728,0)" xlink:href="#n"/><use transform="matrix(0.06172839506172839,0,0,0.06172839506172839,52.962962962962955,0)" xlink:href="#o"/><use transform="matrix(0.06172839506172839,0,0,0.06172839506172839,62.77777777777777,0)" xlink:href="#p"/><use transform="matrix(0.06172839506172839,0,0,0.06172839506172839,72.59259259259258,0)" xlink:href="#k"/><use transform="matrix(0.06172839506172839,0,0,0.06172839506172839,79.93827160493827,0)" xlink:href="#q"/><use transform="matrix(0.06172839506172839,0,0,0.06172839506172839,89.75308641975307,0)" xlink:href="#r"/><use transform="matrix(0.06172839506172839,0,0,0.06172839506172839,100.86419753086419,0)" xlink:href="#s"/><use transform="matrix(0.06172839506172839,0,0,0.06172839506172839,115.679012345679,0)" xlink:href="#t"/></g><path fill="#333" d="M10-9l31-5v-208l-31-4v-10h177v57h-11l-6-38c-28-4-63-3-95-3v92h63l6-28h11v73h-11l-6-29H75v96l105-3 10-43h12l-3 62H10v-9" id="u"/><path fill="#333" d="M41-130c7 48 86 23 86 84 0 56-69 57-112 41v-40c20 0 9 29 31 31 35 19 77-26 41-50-27-18-72-13-72-59 0-50 58-52 100-41v36c-19 1-8-25-28-25-21-7-50-1-46 23" id="v"/><path fill="#333" d="M54-38c-1 25 24 26 44 20v12C71 10 25 9 25-35v-115H4c-2-14 14-10 21-15l18-38h11v38h38v15H54v112" id="w"/><path fill="#333" d="M126-118c4-37-42-32-68-25v131l24 4v8H8C5-13 21-9 28-12v-141c-7-3-23 1-20-12h48l1 13c22-15 77-30 92 2 32-22 104-36 104 29v109c8 3 24-2 21 12h-75v-8l25-4v-106c3-39-45-31-72-24 7 37 1 88 3 130l25 4v8h-78v-8l24-4v-106" id="x"/><path fill="#333" d="M90-170c52 0 76 32 76 87 0 54-24 87-77 87-51 0-75-34-75-87 0-54 24-87 76-87zM89-10c39 0 46-35 46-73 0-39-7-73-46-73-39 1-44 34-44 73s6 72 44 73" id="y"/><g id="b"><use transform="matrix(0.06172839506172839,0,0,0.06172839506172839,0,0)" xlink:href="#u"/><use transform="matrix(0.06172839506172839,0,0,0.06172839506172839,13.518518518518517,0)" xlink:href="#v"/><use transform="matrix(0.06172839506172839,0,0,0.06172839506172839,22.160493827160494,0)" xlink:href="#w"/><use transform="matrix(0.06172839506172839,0,0,0.06172839506172839,28.333333333333332,0)" xlink:href="#l"/><use transform="matrix(0.06172839506172839,0,0,0.06172839506172839,34.50617283950617,0)" xlink:href="#x"/><use transform="matrix(0.06172839506172839,0,0,0.06172839506172839,51.79012345679012,0)" xlink:href="#p"/><use transform="matrix(0.06172839506172839,0,0,0.06172839506172839,61.60493827160494,0)" xlink:href="#w"/><use transform="matrix(0.06172839506172839,0,0,0.06172839506172839,67.77777777777777,0)" xlink:href="#y"/><use transform="matrix(0.06172839506172839,0,0,0.06172839506172839,78.88888888888889,0)" xlink:href="#k"/></g><path fill="#333" d="M75-108c48 3 76-12 76-58s-28-57-76-54v112zm111-58c-1 60-46 78-111 74v78l37 5v9H13v-9l28-5v-208l-31-4v-10c81 1 178-14 176 70" id="z"/><g id="c"><use transform="matrix(0.06172839506172839,0,0,0.06172839506172839,0,0)" xlink:href="#z"/><use transform="matrix(0.06172839506172839,0,0,0.06172839506172839,12.345679012345679,0)" xlink:href="#p"/><use transform="matrix(0.06172839506172839,0,0,0.06172839506172839,22.160493827160494,0)" xlink:href="#k"/><use transform="matrix(0.06172839506172839,0,0,0.06172839506172839,29.50617283950617,0)" xlink:href="#p"/><use transform="matrix(0.06172839506172839,0,0,0.06172839506172839,39.32098765432099,0)" xlink:href="#x"/><use transform="matrix(0.06172839506172839,0,0,0.06172839506172839,56.60493827160494,0)" xlink:href="#o"/><use transform="matrix(0.06172839506172839,0,0,0.06172839506172839,66.41975308641975,0)" xlink:href="#w"/><use transform="matrix(0.06172839506172839,0,0,0.06172839506172839,72.59259259259258,0)" xlink:href="#o"/><use transform="matrix(0.06172839506172839,0,0,0.06172839506172839,82.40740740740739,0)" xlink:href="#k"/><use transform="matrix(0.06172839506172839,0,0,0.06172839506172839,89.75308641975307,0)" xlink:href="#j"/><use transform="matrix(0.06172839506172839,0,0,0.06172839506172839,105.74074074074073,0)" xlink:href="#k"/><use transform="matrix(0.06172839506172839,0,0,0.06172839506172839,113.08641975308642,0)" xlink:href="#l"/><use transform="matrix(0.06172839506172839,0,0,0.06172839506172839,119.25925925925925,0)" xlink:href="#m"/></g><path fill="#333" d="M132-132c-21 0-37 9-50 16v100l26 4V0H10v-12l21-4v-133l-21-5v-11h69l2 34c17-18 35-41 71-40v61c-17 3-14-14-20-22" id="A"/><path fill="#333" d="M12-83c0-55 22-85 75-86 52-1 66 33 63 88H64c-1 37 6 64 44 63 14 0 28-4 39-6 3 28-28 25-55 27-57 4-80-31-80-86zm90-17c2-26 0-63-27-48-10 9-11 28-11 48h38" id="B"/><path fill="#333" d="M78-41c-2 24 21 26 40 20C122 3 98 2 77 4 5 10 32-84 27-147H6v-11l25-7 21-38h26v38h35v18H78v106" id="C"/><path fill="#333" d="M73-51c-3 31 27 38 51 25v-123l-16-5v-11h66v149l17 4V0h-65l-2-14C94 9 22 18 22-44v-105l-17-5v-11h68v114" id="D"/><path fill="#333" d="M127-114c3-31-26-38-50-25v123l15 4V0H10v-12l16-4v-133l-16-5v-11h64l2 14c31-23 102-32 102 30v105l17 4V0h-82v-12l14-4v-98" id="E"/><g id="d"><use transform="matrix(0.04938271604938272,0,0,0.04938271604938272,0,0)" xlink:href="#A"/><use transform="matrix(0.04938271604938272,0,0,0.04938271604938272,7.506172839506173,0)" xlink:href="#B"/><use transform="matrix(0.04938271604938272,0,0,0.04938271604938272,15.358024691358025,0)" xlink:href="#C"/><use transform="matrix(0.04938271604938272,0,0,0.04938271604938272,21.23456790123457,0)" xlink:href="#D"/><use transform="matrix(0.04938271604938272,0,0,0.04938271604938272,31.111111111111114,0)" xlink:href="#A"/><use transform="matrix(0.04938271604938272,0,0,0.04938271604938272,38.96296296296297,0)" xlink:href="#E"/></g><path fill="#333" d="M-3 50V25h186v25H-3" id="F"/><path fill="#333" d="M77-16l18 4V0H8v-12l18-4v-133l-17-5v-11h68v149zM51-196c-16 0-27-10-27-27s10-27 27-27 27 11 27 27c0 17-10 27-27 27" id="G"/><path fill="#333" d="M108-230c-35 27-44 80-44 143s8 116 44 144v20C7 49-17-153 67-223c12-10 25-19 41-27v20" id="H"/><path fill="#333" d="M12-250C113-222 137-19 52 49 40 59 28 69 12 77V57C48 29 56-24 56-87s-9-116-44-143v-20" id="I"/><g id="e"><use transform="matrix(0.04938271604938272,0,0,0.04938271604938272,0,0)" xlink:href="#F"/><use transform="matrix(0.04938271604938272,0,0,0.04938271604938272,8.88888888888889,0)" xlink:href="#F"/><use transform="matrix(0.04938271604938272,0,0,0.04938271604938272,17.77777777777778,0)" xlink:href="#G"/><use transform="matrix(0.04938271604938272,0,0,0.04938271604938272,22.71604938271605,0)" xlink:href="#E"/><use transform="matrix(0.04938271604938272,0,0,0.04938271604938272,32.592592592592595,0)" xlink:href="#G"/><use transform="matrix(0.04938271604938272,0,0,0.04938271604938272,37.53086419753087,0)" xlink:href="#C"/><use transform="matrix(0.04938271604938272,0,0,0.04938271604938272,43.40740740740741,0)" xlink:href="#F"/><use transform="matrix(0.04938271604938272,0,0,0.04938271604938272,52.2962962962963,0)" xlink:href="#F"/><use transform="matrix(0.04938271604938272,0,0,0.04938271604938272,61.18518518518519,0)" xlink:href="#H"/><use transform="matrix(0.04938271604938272,0,0,0.04938271604938272,67.06172839506173,0)" xlink:href="#I"/></g><g id="f"><use transform="matrix(0.04938271604938272,0,0,0.04938271604938272,0,0)" xlink:href="#F"/><use transform="matrix(0.04938271604938272,0,0,0.04938271604938272,8.88888888888889,0)" xlink:href="#F"/><use transform="matrix(0.04938271604938272,0,0,0.04938271604938272,17.77777777777778,0)" xlink:href="#G"/><use transform="matrix(0.04938271604938272,0,0,0.04938271604938272,22.71604938271605,0)" xlink:href="#E"/><use transform="matrix(0.04938271604938272,0,0,0.04938271604938272,32.592592592592595,0)" xlink:href="#G"/><use transform="matrix(0.04938271604938272,0,0,0.04938271604938272,37.53086419753087,0)" xlink:href="#C"/><use transform="matrix(0.04938271604938272,0,0,0.04938271604938272,43.40740740740741,0)" xlink:href="#F"/><use transform="matrix(0.04938271604938272,0,0,0.04938271604938272,52.2962962962963,0)" xlink:href="#F"/></g><path fill="#333" d="M102-142c-14-17-68-15-54 18 24 26 83 17 83 72 0 62-72 62-120 47v-45h12c4 23 16 37 43 37 35 0 39-37 9-46-31-9-65-19-64-61 0-52 59-55 108-45v43h-11" id="J"/><path fill="#333" d="M31-163c51-5 127-20 127 40v107l17 4V0h-61l-4-13C82 13 12 12 12-46c0-51 46-52 95-53 9-45-22-69-57-44l-7 20H31v-40zM62-47c0 30 26 34 45 23v-59c-28 0-45 6-45 36" id="K"/><path fill="#333" d="M109-18c15 0 31-2 42-6v14c-11 9-31 13-51 13-59 0-86-28-88-86-3-75 66-101 135-80v48h-13c-3-20-7-40-34-37-51 7-55 138 9 134" id="L"/><path fill="#333" d="M127-114c3-31-26-38-50-25v123l15 4V0H10v-12l16-4v-218l-17-4v-12h68l-1 99c31-23 102-32 102 30v105l17 4V0h-82v-12l14-4v-98" id="M"/><g id="g"><use transform="matrix(0.04938271604938272,0,0,0.04938271604938272,0,0)" xlink:href="#F"/><use transform="matrix(0.04938271604938272,0,0,0.04938271604938272,8.88888888888889,0)" xlink:href="#A"/><use transform="matrix(0.04938271604938272,0,0,0.04938271604938272,16.74074074074074,0)" xlink:href="#D"/><use transform="matrix(0.04938271604938272,0,0,0.04938271604938272,26.617283950617285,0)" xlink:href="#E"/><use transform="matrix(0.04938271604938272,0,0,0.04938271604938272,36.49382716049383,0)" xlink:href="#F"/><use transform="matrix(0.04938271604938272,0,0,0.04938271604938272,45.38271604938272,0)" xlink:href="#J"/><use transform="matrix(0.04938271604938272,0,0,0.04938271604938272,52.2962962962963,0)" xlink:href="#B"/><use transform="matrix(0.04938271604938272,0,0,0.04938271604938272,60.14814814814817,0)" xlink:href="#K"/><use transform="matrix(0.04938271604938272,0,0,0.04938271604938272,69.03703703703705,0)" xlink:href="#A"/><use transform="matrix(0.04938271604938272,0,0,0.04938271604938272,76.54320987654322,0)" xlink:href="#L"/><use transform="matrix(0.04938271604938272,0,0,0.04938271604938272,84.39506172839506,0)" xlink:href="#M"/><use transform="matrix(0.04938271604938272,0,0,0.04938271604938272,94.27160493827161,0)" xlink:href="#H"/><use transform="matrix(0.04938271604938272,0,0,0.04938271604938272,100.14814814814815,0)" xlink:href="#I"/></g><g id="h"><use transform="matrix(0.04938271604938272,0,0,0.04938271604938272,0,0)" xlink:href="#A"/><use transform="matrix(0.04938271604938272,0,0,0.04938271604938272,7.506172839506173,0)" xlink:href="#B"/><use transform="matrix(0.04938271604938272,0,0,0.04938271604938272,15.358024691358025,0)" xlink:href="#C"/><use transform="matrix(0.04938271604938272,0,0,0.04938271604938272,21.23456790123457,0)" xlink:href="#D"/><use transform="matrix(0.04938271604938272,0,0,0.04938271604938272,31.111111111111114,0)" xlink:href="#A"/><use transform="matrix(0.04938271604938272,0,0,0.04938271604938272,38.96296296296297,0)" xlink:href="#E"/></g><path fill="#333" d="M92-112c43 4 61-13 61-54s-18-54-61-50v104zm118-54c0 63-50 78-118 74v74l39 5V0H8v-13l28-5v-200l-30-5v-13c88 3 205-20 204 70" id="N"/><path fill="#333" d="M126-114c3-31-27-37-49-25v123l15 4V0H10v-12l16-4v-133l-16-5v-11h64l2 14c24-16 81-33 96 3 30-24 105-39 105 27v105l17 4V0h-82v-12l14-4v-98c4-33-27-37-51-24 5 35 0 82 2 122l17 4V0h-83v-12l15-4v-98" id="O"/><path fill="#333" d="M76-115c0 75 46 117 116 94v-68l-30-5v-13h108v13l-23 5v77C218-3 181 4 145 4 67 4 18-36 18-115c0-83 46-123 130-123 37-1 66 6 91 15v54h-15c2-41-32-51-70-51-60 0-78 41-78 105" id="P"/><path fill="#333" d="M15-82c-4-69 47-101 113-83l-1-69-17-4v-12h68v234l18 4V0h-63l-4-9C77 23 5-9 15-82zm112-66c-43-16-64 17-61 65 2 33 3 67 32 67 12 0 22-3 29-8v-124" id="Q"/><g id="i"><use transform="matrix(0.04938271604938272,0,0,0.04938271604938272,0,0)" xlink:href="#N"/><use transform="matrix(0.04938271604938272,0,0,0.04938271604938272,10.814814814814815,0)" xlink:href="#K"/><use transform="matrix(0.04938271604938272,0,0,0.04938271604938272,19.703703703703702,0)" xlink:href="#A"/><use transform="matrix(0.04938271604938272,0,0,0.04938271604938272,27.555555555555554,0)" xlink:href="#K"/><use transform="matrix(0.04938271604938272,0,0,0.04938271604938272,36.44444444444444,0)" xlink:href="#O"/><use transform="matrix(0.04938271604938272,0,0,0.04938271604938272,51.20987654320987,0)" xlink:href="#B"/><use transform="matrix(0.04938271604938272,0,0,0.04938271604938272,59.06172839506172,0)" xlink:href="#C"/><use transform="matrix(0.04938271604938272,0,0,0.04938271604938272,64.93827160493827,0)" xlink:href="#B"/><use transform="matrix(0.04938271604938272,0,0,0.04938271604938272,72.79012345679011,0)" xlink:href="#A"/><use transform="matrix(0.04938271604938272,0,0,0.04938271604938272,80.64197530864196,0)" xlink:href="#P"/><use transform="matrix(0.04938271604938272,0,0,0.04938271604938272,94.46913580246913,0)" xlink:href="#A"/><use transform="matrix(0.04938271604938272,0,0,0.04938271604938272,102.32098765432097,0)" xlink:href="#G"/><use transform="matrix(0.04938271604938272,0,0,0.04938271604938272,107.25925925925925,0)" xlink:href="#Q"/></g></defs></g></svg>